<svg width="700" height="220" viewBox="0 0 700 220" fill="none" xmlns="http://www.w3.org/2000/svg">
<path d="M667.157 128.631C674.195 121.593 685.159 120.951 692.938 126.631C697.432 117.864 700 107.937 700 97.393C700 62.0066 671.306 33.3122 635.919 33.3122C600.533 33.3122 571.838 62.0066 571.838 97.393C571.838 132.78 600.533 161.474 635.919 161.474C646.464 161.474 656.39 158.906 665.157 154.411C659.477 146.633 660.119 135.669 667.157 128.631ZM635.919 125.075C620.634 125.075 608.262 112.703 608.262 97.4177C608.262 82.1322 620.634 69.7605 635.919 69.7605C651.205 69.7605 663.576 82.1569 663.576 97.4177C663.576 112.679 651.18 125.075 635.919 125.075Z" fill="black"/>
<path d="M336.134 128.557C343.172 121.519 354.136 120.877 361.915 126.557C366.409 117.79 368.977 107.863 368.977 97.319C368.977 61.9325 340.283 33.2381 304.897 33.2381C269.51 33.2381 240.816 61.9325 240.816 97.319C240.816 132.705 269.51 161.4 304.897 161.4C315.441 161.4 325.368 158.832 334.134 154.337C328.455 146.559 329.097 135.595 336.134 128.557ZM304.897 125.001C289.611 125.001 277.239 112.629 277.239 97.3436C277.239 82.0581 289.611 69.6864 304.897 69.6864C320.182 69.6864 332.554 82.0828 332.554 97.3436C332.554 112.605 320.157 125.001 304.897 125.001Z" fill="#FF0000"/>
<path d="M38.9424 151.374V209.923H0V35.9297H28.7932L33.8554 47.6841C42.9181 38.1522 54.302 33.3863 67.9578 33.3863C79.0207 33.3863 89.2687 36.2261 98.7265 41.9057C108.184 47.5853 115.667 55.3145 121.198 65.0686C126.729 74.8227 129.495 85.4658 129.495 96.9979C129.495 108.53 126.729 119.395 121.198 129.149C115.667 138.904 108.209 146.682 98.85 152.436C89.4663 158.19 79.1689 161.079 67.9578 161.079C56.7467 161.079 46.9185 157.844 38.9177 151.399L38.9424 151.374ZM83.194 116.926C88.2562 111.79 90.7997 105.221 90.7997 97.2202C90.7997 89.2193 88.2562 82.626 83.194 77.4156C78.1317 72.1805 71.736 69.5876 64.0562 69.5876C56.3763 69.5876 49.9559 72.2052 44.8196 77.4156C39.6585 82.6507 37.0903 89.244 37.0903 97.2202C37.0903 105.196 39.6585 111.79 44.8196 116.926C49.9559 122.087 56.3763 124.655 64.0562 124.655C71.736 124.655 78.107 122.087 83.194 116.926Z" fill="#FF0000"/>
<path d="M148.756 35.9297H178.71L184.464 50.919C187.995 45.2394 192.415 40.8932 197.725 37.9053C203.034 34.9173 209.059 33.4109 215.825 33.4109C225.703 33.4109 235.062 36.6212 243.927 43.0416L227.58 75.1438C221.9 71.1433 216.294 69.1431 210.763 69.1431C204.466 69.1431 199.058 71.6372 194.514 76.6254C189.995 81.6136 187.724 88.4044 187.724 97.0226V158.091H148.781V35.9297H148.756Z" fill="#FF0000"/>
<path d="M394.535 116.333C399.622 119.568 405.672 122.334 412.735 124.63C419.797 126.927 426.341 128.088 432.317 128.088C440.318 128.088 444.318 126.013 444.318 121.865C444.318 119.716 442.763 117.889 439.701 116.333C436.614 114.802 430.786 112.876 422.168 110.58C410.661 107.345 401.227 102.554 393.943 96.183C386.658 89.812 383.003 81.7123 383.003 71.8841C383.003 64.6735 385.028 58.1049 389.103 52.1784C393.153 46.2765 399.128 41.6093 406.956 38.2263C414.784 34.8432 424.02 33.164 434.614 33.164C441.997 33.164 449.677 34.4728 457.678 37.0903C464.814 39.4363 471.729 42.5477 478.371 46.4987L463.432 75.8105C459.604 73.3411 454.665 71.1927 448.689 69.3654C442.689 67.5133 437.404 66.5996 432.786 66.5996C425.427 66.5996 421.723 68.5998 421.723 72.6003C421.723 74.7486 423.106 76.5266 425.872 77.9095C428.638 79.2923 434.169 81.1444 442.466 83.4409C455.999 86.824 466.173 91.4665 472.988 97.393C479.828 103.32 483.261 111.641 483.261 122.408C483.261 129.767 481.211 136.434 477.161 142.336C473.087 148.238 467.333 152.93 459.876 156.387C452.418 159.844 443.775 161.573 433.947 161.573C414.315 161.573 396.338 155.992 380.065 144.805L394.535 116.407V116.333Z" fill="black"/>
<path d="M518.03 146.781C509.436 138.558 505.14 126.853 505.14 111.666V71.3656H492.472V35.905H505.14V9.63065L544.057 0V35.905H563.862V71.3656H544.057V107.74C544.057 118.185 547.663 123.396 554.898 123.396C557.244 123.396 559.466 123.272 561.565 123.025L573.641 155.374C565.936 158.437 556.602 159.079 553.071 159.079C538.353 159.079 526.673 154.979 518.079 146.756L518.03 146.781Z" fill="black"/>
<path d="M97.9857 186.069C99.7884 187.23 101.196 188.81 102.208 190.81C103.221 192.811 103.739 195.008 103.739 197.428C103.739 199.848 103.221 202.071 102.208 204.071C101.196 206.071 99.7884 207.652 97.9857 208.812C96.1831 209.973 94.1829 210.541 91.9357 210.541C90.1084 210.541 88.4786 210.146 87.0463 209.331C85.6141 208.516 84.404 207.405 83.441 205.997V218.566H79.6875V184.884H83.3916V188.958C84.3547 187.526 85.5647 186.39 86.9969 185.575C88.4292 184.76 90.0837 184.365 91.9357 184.365C94.1582 184.365 96.1831 184.933 97.9857 186.118V186.069ZM96.0596 205.676C97.319 204.861 98.2821 203.725 98.9735 202.293C99.6649 200.861 100.011 199.256 100.011 197.453C100.011 195.65 99.6649 194.045 98.9735 192.588C98.2821 191.156 97.2943 190.02 96.0349 189.181C94.7755 188.366 93.3186 187.946 91.6888 187.946C90.059 187.946 88.5773 188.366 87.2932 189.181C86.0092 189.995 84.9967 191.131 84.2806 192.588C83.5645 194.045 83.194 195.65 83.194 197.453C83.194 199.256 83.5645 200.861 84.2806 202.293C84.9967 203.725 86.0092 204.861 87.2932 205.676C88.5773 206.491 90.059 206.886 91.7135 206.886C93.368 206.886 94.8002 206.466 96.0596 205.676Z" fill="#FF0000"/>
<path d="M138.459 186.193L136.78 189.23C136.089 188.761 135.397 188.415 134.656 188.168C133.915 187.946 133.199 187.822 132.508 187.847C131.446 187.847 130.434 188.217 129.471 188.909C128.507 189.6 127.742 190.563 127.125 191.823C126.507 193.058 126.162 194.465 126.087 196.045V209.948H122.334V184.859H125.915V188.588C126.631 187.279 127.594 186.242 128.828 185.476C130.063 184.711 131.421 184.316 132.928 184.316C134.78 184.316 136.632 184.933 138.484 186.168L138.459 186.193Z" fill="#FF0000"/>
<path d="M156.732 208.837C154.782 207.676 153.226 206.096 152.09 204.096C150.954 202.096 150.386 199.898 150.386 197.478C150.386 195.058 150.954 192.835 152.09 190.835C153.226 188.835 154.782 187.23 156.732 186.069C158.683 184.908 160.832 184.316 163.177 184.316C165.523 184.316 167.672 184.908 169.623 186.069C171.573 187.23 173.129 188.835 174.265 190.835C175.401 192.835 175.969 195.058 175.969 197.478C175.969 199.898 175.401 202.096 174.24 204.096C173.104 206.096 171.549 207.676 169.573 208.837C167.622 209.998 165.449 210.59 163.128 210.59C160.807 210.59 158.634 210.022 156.683 208.837H156.732ZM167.771 205.75C169.153 204.911 170.24 203.775 171.055 202.318C171.87 200.861 172.265 199.256 172.265 197.478C172.265 195.7 171.87 194.119 171.055 192.638C170.24 191.181 169.153 190.02 167.771 189.181C166.388 188.341 164.881 187.921 163.227 187.921C161.572 187.921 160.041 188.341 158.658 189.181C157.276 190.02 156.164 191.181 155.374 192.638C154.559 194.095 154.164 195.724 154.164 197.502C154.164 199.28 154.559 200.886 155.374 202.342C156.189 203.799 157.276 204.935 158.658 205.775C160.041 206.615 161.572 207.034 163.227 207.034C164.881 207.034 166.388 206.615 167.771 205.775V205.75Z" fill="#FF0000"/>
<path d="M205.948 205.997C209.553 205.997 212.146 206.516 213.751 207.578C215.356 208.615 216.147 210.22 216.147 212.344C216.147 213.652 215.751 214.813 214.961 215.825C214.171 216.838 213.01 217.653 211.479 218.221C209.948 218.813 208.096 219.11 205.923 219.11C203.553 219.11 201.33 218.937 199.256 218.616C197.182 218.295 195.33 217.801 193.675 217.184L194.539 213.924C196.144 214.492 197.898 214.912 199.799 215.208C201.701 215.504 203.627 215.653 205.553 215.653C207.627 215.653 209.257 215.381 210.492 214.813C211.726 214.245 212.344 213.43 212.344 212.319C212.344 210.393 210.097 209.405 205.602 209.405H195.33V206.615L197.75 203.207C196.243 202.318 195.033 201.132 194.169 199.601C193.305 198.095 192.86 196.391 192.86 194.539C192.86 192.687 193.329 190.86 194.243 189.329C195.181 187.798 196.441 186.588 198.071 185.699C199.7 184.81 201.528 184.39 203.553 184.39C205.578 184.39 207.331 184.81 208.961 185.674L212.813 181.846L215.282 184.044L211.529 187.6C212.393 188.514 213.084 189.551 213.554 190.736C214.023 191.922 214.27 193.181 214.27 194.539C214.27 196.465 213.801 198.219 212.887 199.75C211.973 201.281 210.689 202.491 209.059 203.38C207.43 204.269 205.602 204.713 203.577 204.713C202.713 204.713 201.824 204.614 200.935 204.441L199.873 205.997H205.948ZM199.997 188.687C198.935 189.255 198.095 190.045 197.478 191.082C196.861 192.094 196.564 193.255 196.564 194.564C196.564 195.873 196.861 197.009 197.478 198.046C198.095 199.083 198.935 199.873 199.997 200.441C201.059 201.009 202.244 201.305 203.577 201.305C204.911 201.305 206.121 201.009 207.183 200.441C208.244 199.873 209.084 199.083 209.701 198.046C210.319 197.033 210.615 195.873 210.615 194.564C210.615 193.255 210.319 192.119 209.701 191.082C209.084 190.045 208.244 189.255 207.183 188.687C206.096 188.119 204.911 187.822 203.577 187.822C202.244 187.822 201.059 188.119 199.997 188.687Z" fill="#FF0000"/>
<path d="M248.693 186.193L247.014 189.23C246.322 188.761 245.631 188.415 244.89 188.168C244.149 187.946 243.433 187.822 242.742 187.847C241.68 187.847 240.667 188.217 239.704 188.909C238.741 189.6 237.976 190.563 237.358 191.823C236.741 193.058 236.395 194.465 236.321 196.045V209.948H232.568V184.859H236.148V188.588C236.864 187.279 237.827 186.242 239.062 185.476C240.297 184.711 241.655 184.316 243.161 184.316C245.013 184.316 246.865 184.933 248.717 186.168L248.693 186.193Z" fill="#FF0000"/>
<path d="M280.869 184.859H284.647V209.948H280.968V205.898C280.005 207.331 278.795 208.467 277.338 209.281C275.881 210.096 274.251 210.516 272.399 210.516C270.152 210.516 268.127 209.948 266.349 208.788C264.571 207.627 263.164 206.047 262.126 204.046C261.089 202.046 260.595 199.824 260.595 197.404C260.595 194.984 261.114 192.786 262.126 190.786C263.139 188.785 264.546 187.205 266.349 186.044C268.152 184.884 270.152 184.291 272.399 184.291C274.251 184.291 275.856 184.686 277.289 185.476C278.721 186.267 279.906 187.353 280.869 188.736V184.81V184.859ZM277.066 205.676C278.35 204.861 279.338 203.725 280.079 202.293C280.795 200.861 281.166 199.256 281.166 197.453C281.166 195.65 280.795 194.045 280.079 192.588C279.363 191.156 278.35 190.02 277.066 189.181C275.782 188.366 274.325 187.946 272.671 187.946C271.016 187.946 269.584 188.366 268.349 189.181C267.09 189.995 266.102 191.131 265.411 192.588C264.719 194.045 264.374 195.65 264.374 197.453C264.374 199.256 264.719 200.885 265.411 202.318C266.102 203.75 267.065 204.861 268.325 205.676C269.584 206.491 271.016 206.886 272.671 206.886C274.325 206.886 275.807 206.466 277.091 205.676H277.066Z" fill="#FF0000"/>
<path d="M337.048 185.551C338.455 186.39 339.542 187.551 340.308 189.082C341.073 190.613 341.468 192.391 341.468 194.416V209.923H337.715V194.811C337.715 193.379 337.468 192.144 336.974 191.107C336.48 190.07 335.764 189.255 334.85 188.711C333.937 188.143 332.875 187.872 331.689 187.872C330.504 187.872 329.343 188.217 328.331 188.884C327.319 189.576 326.528 190.489 325.96 191.625C325.392 192.786 325.096 194.045 325.096 195.428V209.899H321.343V194.786C321.343 193.354 321.096 192.119 320.602 191.082C320.108 190.045 319.392 189.23 318.478 188.687C317.564 188.119 316.503 187.847 315.317 187.847C314.132 187.847 312.971 188.193 311.959 188.86C310.946 189.551 310.156 190.465 309.588 191.601C309.02 192.761 308.724 194.021 308.724 195.403V209.874H304.97V184.785H308.551V187.551C309.465 186.489 310.551 185.674 311.835 185.081C313.119 184.513 314.404 184.217 315.712 184.217C317.589 184.217 319.244 184.637 320.651 185.452C322.059 186.267 323.145 187.427 323.911 188.934C324.75 187.452 325.936 186.291 327.442 185.452C328.948 184.612 330.504 184.217 332.084 184.217C333.961 184.217 335.616 184.637 337.023 185.452L337.048 185.551Z" fill="#FF0000"/>
<path d="M392.856 185.551C394.264 186.39 395.351 187.551 396.116 189.082C396.882 190.613 397.277 192.391 397.277 194.416V209.923H393.523V194.811C393.523 193.379 393.276 192.144 392.782 191.107C392.289 190.07 391.572 189.255 390.659 188.711C389.745 188.143 388.683 187.872 387.498 187.872C386.313 187.872 385.152 188.217 384.14 188.884C383.127 189.576 382.337 190.489 381.769 191.625C381.201 192.786 380.905 194.045 380.905 195.428V209.899H377.151V194.786C377.151 193.354 376.904 192.119 376.41 191.082C375.916 190.045 375.2 189.23 374.287 188.687C373.373 188.119 372.311 187.847 371.126 187.847C369.94 187.847 368.78 188.193 367.767 188.86C366.755 189.551 365.965 190.465 365.397 191.601C364.829 192.761 364.533 194.021 364.533 195.403V209.874H360.779V184.785H364.36V187.551C365.273 186.489 366.36 185.674 367.644 185.081C368.928 184.513 370.212 184.217 371.521 184.217C373.398 184.217 375.052 184.637 376.46 185.452C377.867 186.267 378.954 187.427 379.719 188.934C380.559 187.452 381.72 186.291 383.251 185.452C384.757 184.612 386.313 184.217 387.893 184.217C389.77 184.217 391.424 184.637 392.832 185.452L392.856 185.551Z" fill="#FF0000"/>
<path d="M416.612 178.365C416.118 177.871 415.871 177.278 415.871 176.611C415.871 175.945 416.118 175.327 416.612 174.809C417.106 174.29 417.723 174.043 418.464 174.043C419.205 174.043 419.847 174.315 420.365 174.809C420.884 175.327 421.131 175.92 421.131 176.611C421.131 177.303 420.884 177.871 420.365 178.365C419.847 178.858 419.229 179.105 418.464 179.105C417.698 179.105 417.106 178.858 416.612 178.365ZM420.39 209.923H416.636V184.834H420.39V209.923Z" fill="#FF0000"/>
<path d="M458.122 185.551C459.604 186.39 460.74 187.6 461.53 189.205C462.32 190.81 462.715 192.736 462.715 194.959V209.923H458.913V195.576C458.913 193.107 458.32 191.205 457.135 189.897C455.949 188.563 454.245 187.921 452.023 187.921C450.615 187.921 449.356 188.267 448.195 188.934C447.059 189.6 446.146 190.539 445.479 191.724C444.812 192.909 444.467 194.267 444.467 195.749V209.948H440.713V184.859H444.294V188.242C445.207 187.057 446.417 186.118 447.948 185.378C449.479 184.662 451.109 184.291 452.813 184.291C454.887 184.291 456.641 184.711 458.122 185.551Z" fill="#FF0000"/>
<path d="M493.41 205.997C497.016 205.997 499.608 206.516 501.214 207.578C502.819 208.615 503.609 210.22 503.609 212.344C503.609 213.652 503.214 214.813 502.424 215.825C501.633 216.838 500.473 217.653 498.942 218.221C497.411 218.813 495.559 219.11 493.386 219.11C491.015 219.11 488.793 218.937 486.718 218.616C484.644 218.295 482.792 217.801 481.162 217.184L482.026 213.924C483.631 214.492 485.385 214.912 487.286 215.208C489.188 215.504 491.114 215.653 493.04 215.653C495.114 215.653 496.744 215.381 497.979 214.813C499.213 214.245 499.831 213.43 499.831 212.319C499.831 210.393 497.584 209.405 493.089 209.405H482.817V206.615L485.237 203.207C483.73 202.318 482.52 201.132 481.656 199.601C480.792 198.07 480.347 196.391 480.347 194.539C480.347 192.687 480.816 190.86 481.73 189.329C482.668 187.798 483.928 186.588 485.558 185.699C487.187 184.81 489.015 184.39 491.015 184.39C493.015 184.39 494.793 184.81 496.423 185.674L500.275 181.846L502.745 184.044L498.991 187.6C499.855 188.514 500.547 189.551 501.016 190.736C501.485 191.922 501.732 193.181 501.732 194.539C501.732 196.465 501.263 198.219 500.349 199.75C499.436 201.281 498.152 202.491 496.522 203.38C494.892 204.269 493.065 204.713 491.015 204.713C490.151 204.713 489.262 204.614 488.373 204.441L487.311 205.997H493.386H493.41ZM487.459 188.687C486.397 189.255 485.558 190.045 484.94 191.082C484.323 192.094 484.027 193.255 484.027 194.564C484.027 195.873 484.323 197.009 484.94 198.046C485.558 199.083 486.397 199.873 487.459 200.441C488.521 201.009 489.706 201.305 491.04 201.305C492.373 201.305 493.583 201.009 494.645 200.441C495.707 199.873 496.546 199.083 497.164 198.046C497.781 197.033 498.077 195.873 498.077 194.564C498.077 193.255 497.756 192.119 497.164 191.082C496.546 190.045 495.707 189.255 494.645 188.687C493.583 188.119 492.373 187.822 491.04 187.822C489.706 187.822 488.521 188.119 487.459 188.687Z" fill="#FF0000"/>
<path d="M546.156 209.528C544.28 208.812 542.675 207.899 541.316 206.738L543.514 203.898C544.65 204.787 545.984 205.528 547.49 206.121C549.021 206.713 550.577 207.01 552.157 207.01C553.91 207.01 555.293 206.664 556.355 205.972C557.417 205.281 557.935 204.343 557.935 203.133C557.935 202.367 557.688 201.7 557.195 201.132C556.701 200.564 555.935 200.095 554.947 199.7C553.935 199.305 552.626 198.91 550.996 198.515C545.416 197.206 542.65 194.737 542.65 191.107C542.65 189.847 543.02 188.711 543.761 187.674C544.502 186.637 545.564 185.822 546.971 185.205C548.379 184.587 550.033 184.291 551.984 184.291C553.639 184.291 555.293 184.563 556.997 185.106C558.701 185.649 560.133 186.44 561.294 187.477L559.121 190.242C558.207 189.551 557.096 188.983 555.787 188.538C554.478 188.094 553.194 187.872 551.91 187.872C550.206 187.872 548.897 188.168 548.008 188.736C547.119 189.304 546.675 190.094 546.675 191.107C546.675 191.798 546.873 192.366 547.243 192.835C547.613 193.304 548.255 193.749 549.144 194.144C550.033 194.539 551.268 194.934 552.873 195.354C554.701 195.823 556.281 196.366 557.59 196.959C558.899 197.552 559.96 198.367 560.751 199.354C561.565 200.342 561.961 201.577 561.961 203.009C561.961 204.441 561.541 205.75 560.726 206.911C559.911 208.047 558.75 208.96 557.269 209.602C555.787 210.244 554.108 210.566 552.256 210.566C550.083 210.566 548.083 210.22 546.206 209.504L546.156 209.528Z" fill="black"/>
<path d="M611.003 208.837C609.052 207.676 607.497 206.096 606.361 204.096C605.225 202.096 604.657 199.898 604.657 197.478C604.657 195.058 605.225 192.835 606.361 190.835C607.497 188.835 609.052 187.23 611.003 186.069C612.954 184.908 615.102 184.316 617.448 184.316C619.794 184.316 621.943 184.908 623.893 186.069C625.844 187.23 627.4 188.835 628.536 190.835C629.672 192.835 630.24 195.058 630.24 197.478C630.24 199.898 629.672 202.096 628.511 204.096C627.375 206.096 625.819 207.676 623.844 208.837C621.893 209.998 619.72 210.59 617.399 210.59C615.078 210.59 612.905 210.022 610.954 208.837H611.003ZM622.041 205.75C623.424 204.911 624.511 203.775 625.326 202.318C626.14 200.861 626.536 199.256 626.536 197.478C626.536 195.7 626.14 194.119 625.326 192.638C624.511 191.181 623.424 190.02 622.041 189.181C620.658 188.341 619.152 187.921 617.498 187.921C615.843 187.921 614.312 188.341 612.929 189.181C611.546 190.02 610.435 191.181 609.645 192.638C608.83 194.095 608.435 195.724 608.435 197.502C608.435 199.28 608.83 200.886 609.645 202.342C610.46 203.799 611.546 204.935 612.929 205.775C614.312 206.615 615.843 207.034 617.498 207.034C619.152 207.034 620.658 206.615 622.041 205.775V205.75Z" fill="black"/>
<path d="M664.984 186.193L663.305 189.23C662.638 188.761 661.922 188.415 661.181 188.168C660.44 187.946 659.724 187.822 659.033 187.847C657.971 187.847 656.959 188.217 656.02 188.909C655.057 189.6 654.292 190.563 653.674 191.823C653.057 193.058 652.711 194.465 652.637 196.045V209.948H648.884V184.859H652.464V188.588C653.18 187.279 654.143 186.242 655.378 185.476C656.613 184.711 657.971 184.316 659.477 184.316C661.329 184.316 663.181 184.933 665.033 186.168L664.984 186.193Z" fill="black"/>
<path d="M680.64 198.787C680.838 200.416 681.332 201.849 682.146 203.083C682.961 204.318 683.974 205.306 685.233 205.997C686.493 206.689 687.851 207.034 689.357 207.034C690.765 207.034 692.098 206.787 693.308 206.269C694.518 205.75 695.605 205.059 696.518 204.145L698.494 206.911C697.259 208.071 695.876 208.96 694.296 209.602C692.716 210.245 691.012 210.566 689.16 210.566C686.888 210.566 684.813 209.998 682.937 208.812C681.06 207.652 679.578 206.071 678.516 204.071C677.43 202.071 676.911 199.873 676.911 197.478C676.911 195.082 677.405 192.835 678.418 190.835C679.43 188.835 680.788 187.23 682.566 186.069C684.32 184.908 686.295 184.316 688.493 184.316C690.691 184.316 692.79 184.884 694.543 185.995C696.296 187.106 697.63 188.662 698.568 190.662C699.506 192.638 699.976 194.885 699.976 197.404C699.976 197.873 699.951 198.342 699.877 198.787H680.64ZM684.937 188.81C683.826 189.427 682.912 190.316 682.171 191.452C681.43 192.588 680.961 193.897 680.714 195.379H696.148C695.926 193.872 695.457 192.539 694.79 191.403C694.098 190.267 693.234 189.403 692.172 188.785C691.11 188.168 689.925 187.872 688.592 187.872C687.258 187.872 686.023 188.193 684.937 188.81Z" fill="black"/>
<path d="M583.889 188.341H590.235V184.859H583.889V177.846L580.061 178.636V184.859H575.814V188.341H580.086V201.404C580.086 204.194 580.753 206.368 582.062 207.923C583.37 209.479 585.296 210.244 587.865 210.244H588.729V206.812H588.284C586.827 206.812 585.716 206.368 585 205.503C584.284 204.639 583.914 203.305 583.914 201.478V188.316L583.889 188.341Z" fill="black"/>
</svg>
