<svg width="847" height="352" viewBox="0 0 847 352" fill="none" xmlns="http://www.w3.org/2000/svg">
<path d="M143.836 303.654C126.575 303.654 109.835 300.274 94.0784 293.611C78.8577 287.174 65.1842 277.953 53.4424 266.211C41.7006 254.47 32.4826 240.796 26.0427 225.575C19.3796 209.821 16 193.078 16 175.818C16 158.557 19.3796 141.817 26.0427 126.063C32.4795 110.842 41.6975 97.1718 53.4424 85.4331C65.1842 73.6913 78.8577 64.4764 94.0784 58.0396C109.835 51.3796 126.575 48 143.836 48H143.923C154.232 48 164.492 49.2371 174.42 51.6773C183.57 53.9252 192.487 57.2056 200.924 61.4316C242.84 82.3914 269.905 124.441 271.561 171.173C271.561 171.195 271.561 171.219 271.561 171.241C271.623 172.667 271.654 174.165 271.654 175.821C271.654 177.476 271.623 178.909 271.564 180.31C270.454 196.216 263.416 210.997 251.742 221.945C239.994 232.958 224.652 239.026 208.539 239.026C203.038 239.026 197.678 238.34 192.49 236.982C210.979 222.345 221.992 200.021 221.992 175.821C221.992 146.452 205.761 119.846 179.629 106.39C168.517 100.657 156.496 97.7516 143.908 97.7516C101.244 97.7516 66.9826 131.117 65.8695 173.728C65.8354 174.481 65.8354 175.194 65.8354 175.824C65.8354 176.453 65.8354 177.135 65.8664 177.87C66.6105 231.439 96.8503 279.584 144.807 303.539C144.887 303.579 144.965 303.62 145.045 303.66H143.833L143.836 303.654Z" fill="#5F4BB6"/>
<path d="M208.17 303.654C197.808 303.654 187.526 302.414 177.608 299.964C168.458 297.732 159.544 294.455 151.095 290.222C130.414 279.894 112.893 264.125 100.416 244.619C87.6138 224.605 80.6841 201.413 80.3709 177.551C80.3709 177.467 80.3678 177.381 80.3647 177.297C80.343 176.863 80.343 176.354 80.343 175.818C80.343 175.281 80.343 174.776 80.3647 174.339C80.3647 174.283 80.3678 174.23 80.3709 174.175C80.7864 157.649 87.5394 142.174 99.3898 130.605C111.262 119.016 126.938 112.631 143.536 112.631C149.036 112.631 154.4 113.317 159.584 114.675C141.095 129.313 130.082 151.627 130.082 175.821C130.082 205.199 146.317 231.811 172.448 245.267C183.567 251 195.585 253.909 208.173 253.909C249.057 253.909 283.269 221.988 286.056 181.241C286.183 179.473 286.248 177.641 286.248 175.824C286.248 174.007 286.186 172.268 286.065 170.519C284.171 118.392 253.968 71.5025 207.218 48.1274C207.137 48.0871 207.057 48.0467 206.973 48.0064H208.173C225.431 48.0064 242.171 51.386 257.925 58.0492C273.145 64.4859 286.816 73.7039 298.558 85.4457C310.299 97.1876 319.517 110.858 325.957 126.079C332.62 141.833 336 158.569 336 175.827C336 193.085 332.62 209.828 325.957 225.585C319.517 240.806 310.299 254.479 298.558 266.221C286.816 277.963 273.145 287.181 257.925 293.621C242.171 300.284 225.431 303.663 208.173 303.663L208.17 303.654Z" fill="#5F4BB6"/>
<path d="M432 228.44V222.056L465.136 174.48H433.064V159.736H489.304V165.968L456.168 213.544H489.456V228.44H432Z" fill="black"/>
<path d="M534.994 229.504C529.725 229.504 524.81 228.643 520.25 226.92C515.792 225.197 511.89 222.765 508.546 219.624C505.304 216.381 502.77 212.632 500.946 208.376C499.122 204.019 498.21 199.205 498.21 193.936C498.21 188.667 499.122 183.853 500.946 179.496C502.872 175.139 505.456 171.389 508.698 168.248C511.941 165.107 515.792 162.725 520.25 161.104C524.81 159.381 529.725 158.52 534.994 158.52C540.365 158.52 545.28 159.381 549.738 161.104C554.197 162.827 558.048 165.259 561.29 168.4C564.533 171.44 567.066 175.139 568.89 179.496C570.714 183.853 571.626 188.667 571.626 193.936C571.626 199.205 570.664 204.069 568.738 208.528C566.914 212.885 564.381 216.635 561.138 219.776C557.896 222.917 553.994 225.349 549.434 227.072C544.976 228.693 540.162 229.504 534.994 229.504ZM534.994 215.216C537.933 215.216 540.568 214.709 542.898 213.696C545.229 212.581 547.205 211.112 548.826 209.288C550.549 207.363 551.866 205.083 552.778 202.448C553.69 199.813 554.146 196.976 554.146 193.936C554.146 190.896 553.69 188.109 552.778 185.576C551.968 183.043 550.701 180.813 548.978 178.888C547.357 176.963 545.381 175.493 543.05 174.48C540.72 173.467 538.034 172.96 534.994 172.96C532.056 172.96 529.37 173.517 526.938 174.632C524.608 175.645 522.581 177.115 520.858 179.04C519.237 180.864 517.97 183.043 517.058 185.576C516.146 188.109 515.69 190.896 515.69 193.936C515.69 196.875 516.146 199.661 517.058 202.296C517.97 204.931 519.237 207.211 520.858 209.136C522.581 210.96 524.608 212.429 526.938 213.544C529.37 214.659 532.056 215.216 534.994 215.216Z" fill="black"/>
<path d="M618.713 229.504C613.444 229.504 608.529 228.643 603.969 226.92C599.51 225.197 595.609 222.765 592.265 219.624C589.022 216.381 586.489 212.632 584.665 208.376C582.841 204.019 581.929 199.205 581.929 193.936C581.929 188.667 582.841 183.853 584.665 179.496C586.59 175.139 589.174 171.389 592.417 168.248C595.66 165.107 599.51 162.725 603.969 161.104C608.529 159.381 613.444 158.52 618.713 158.52C624.084 158.52 628.998 159.381 633.457 161.104C637.916 162.827 641.766 165.259 645.009 168.4C648.252 171.44 650.785 175.139 652.609 179.496C654.433 183.853 655.345 188.667 655.345 193.936C655.345 199.205 654.382 204.069 652.457 208.528C650.633 212.885 648.1 216.635 644.857 219.776C641.614 222.917 637.713 225.349 633.153 227.072C628.694 228.693 623.881 229.504 618.713 229.504ZM618.713 215.216C621.652 215.216 624.286 214.709 626.617 213.696C628.948 212.581 630.924 211.112 632.545 209.288C634.268 207.363 635.585 205.083 636.497 202.448C637.409 199.813 637.865 196.976 637.865 193.936C637.865 190.896 637.409 188.109 636.497 185.576C635.686 183.043 634.42 180.813 632.697 178.888C631.076 176.963 629.1 175.493 626.769 174.48C624.438 173.467 621.753 172.96 618.713 172.96C615.774 172.96 613.089 173.517 610.657 174.632C608.326 175.645 606.3 177.115 604.577 179.04C602.956 180.864 601.689 183.043 600.777 185.576C599.865 188.109 599.409 190.896 599.409 193.936C599.409 196.875 599.865 199.661 600.777 202.296C601.689 204.931 602.956 207.211 604.577 209.136C606.3 210.96 608.326 212.429 610.657 213.544C613.089 214.659 615.774 215.216 618.713 215.216Z" fill="black"/>
<path d="M670.056 228.44V122.04H686.928V228.44H670.056Z" fill="black"/>
<path d="M715.398 229.96C712.155 229.96 709.622 228.997 707.798 227.072C706.075 225.045 705.214 222.664 705.214 219.928C705.214 217.091 706.075 214.659 707.798 212.632C709.521 210.605 712.054 209.592 715.398 209.592C718.843 209.592 721.478 210.605 723.302 212.632C725.126 214.557 726.038 216.989 726.038 219.928C726.038 221.347 725.785 222.664 725.278 223.88C724.771 224.995 724.062 226.059 723.15 227.072C722.238 227.984 721.123 228.693 719.806 229.2C718.59 229.707 717.121 229.96 715.398 229.96Z" fill="black"/>
<path d="M792.685 228.44V211.568L791.773 209.288V179.648L792.685 178.584V159.736H808.645V228.44H792.685ZM769.277 229.504C765.021 229.504 760.917 228.693 756.965 227.072C753.115 225.349 749.669 222.968 746.629 219.928C743.691 216.787 741.309 213.037 739.485 208.68C737.661 204.221 736.749 199.307 736.749 193.936C736.749 188.565 737.611 183.752 739.333 179.496C741.157 175.139 743.539 171.389 746.477 168.248C749.416 165.107 752.861 162.725 756.813 161.104C760.765 159.381 764.92 158.52 769.277 158.52C772.925 158.52 776.269 159.027 779.309 160.04C782.451 160.952 785.136 162.269 787.365 163.992C789.696 165.715 791.571 167.64 792.989 169.768C794.408 171.896 795.269 174.075 795.573 176.304V193.024H791.773C791.773 190.288 791.317 187.755 790.405 185.424C789.595 182.992 788.379 180.915 786.757 179.192C785.237 177.368 783.312 175.949 780.981 174.936C778.651 173.923 776.067 173.416 773.229 173.416C770.696 173.416 768.264 173.872 765.933 174.784C763.704 175.595 761.728 176.861 760.005 178.584C758.384 180.307 757.067 182.485 756.053 185.12C755.04 187.653 754.533 190.592 754.533 193.936C754.533 197.179 754.989 200.117 755.901 202.752C756.915 205.285 758.232 207.464 759.853 209.288C761.475 211.112 763.4 212.531 765.629 213.544C767.96 214.456 770.493 214.912 773.229 214.912C775.965 214.912 778.499 214.405 780.829 213.392C783.16 212.277 785.085 210.808 786.605 208.984C788.227 207.16 789.493 204.981 790.405 202.448C791.317 199.915 791.773 197.229 791.773 194.392H796.333V210.504C795.725 213.139 794.611 215.621 792.989 217.952C791.368 220.283 789.392 222.309 787.061 224.032C784.731 225.653 782.045 226.971 779.005 227.984C775.965 228.997 772.723 229.504 769.277 229.504Z" fill="black"/>
<path d="M827.845 228.44V159.736H844.717V228.44H827.845ZM836.357 146.056C833.317 146.056 830.834 145.144 828.909 143.32C826.983 141.496 826.021 139.165 826.021 136.328C826.021 133.389 826.983 131.008 828.909 129.184C830.834 127.36 833.317 126.448 836.357 126.448C839.498 126.448 841.981 127.36 843.805 129.184C845.629 131.008 846.541 133.389 846.541 136.328C846.541 139.165 845.629 141.496 843.805 143.32C841.981 145.144 839.498 146.056 836.357 146.056Z" fill="black"/>
</svg>
